<svg width="738" height="480" viewBox="0 0 738 480" fill="none" xmlns="http://www.w3.org/2000/svg">
<path d="M171.6 0.199977C159 10.4 117 27.8 114 139.4C114 139.4 112.2 193.4 112.2 239.6C112.2 287 114 337.4 114 337.4C117.6 452 154.8 466.4 171 479C133.8 479 1.69873e-06 446 1.69873e-06 239.6C1.69873e-06 29.6 133.8 0.199977 171.6 0.199977ZM209.4 0.199977C222 10.4 264 27.8 266.4 139.4C266.4 139.4 268.8 193.4 268.8 239.6C268.8 287 266.4 337.4 266.4 337.4C263.4 452 226.2 466.4 210 479C247.2 479 381 446 381 239.6C381 29.6 247.2 0.199977 209.4 0.199977ZM737.306 341C729.506 361.4 712.706 375.8 676.706 375.8C640.706 375.8 605.306 372.2 569.906 370.4C541.106 368.6 511.706 369.2 485.306 380.6C461.906 390.8 444.506 406.4 433.106 426.8C434.306 425.6 434.906 424.4 436.706 423.2C446.306 413.6 459.506 407.6 473.306 407.6C500.906 407.6 522.506 419 545.306 437.6C572.906 460.4 602.906 484.4 641.906 479C683.306 473 716.306 444.2 730.106 407C740.306 382.4 736.706 365 737.306 341ZM721.106 69.8C702.506 36.2 652.106 0.199977 556.106 0.199977C615.506 15.2 628.106 95 614.306 144.8C596.906 207.2 498.506 308 490.706 338C530.306 289.4 671.306 234.2 707.906 194.6C741.506 157.4 743.306 109.4 721.106 69.8ZM490.706 187.4C454.706 187.4 428.906 156.8 428.906 127.4C428.906 41 509.906 10.4 509.906 10.4C509.906 10.4 470.306 35 463.106 69.8C471.506 65.6 481.106 63.2 490.706 63.2C524.906 63.2 552.506 91.4 552.506 125C552.506 161 522.506 187.4 490.706 187.4Z" fill="#262626"/>
</svg>
